<svg version="1.1" xmlns="http://www.w3.org/2000/svg" viewBox="0 0 1845.751327647683 752.185988540293" width="1845.751327647683" height="752.185988540293">
    <defs>
        <style class="style-fonts">
            @font-face {
            font-family: "Virgil";
            src: url("https://excalidraw.com/Virgil.woff2");
            }
            @font-face {
            font-family: "Cascadia";
            src: url("https://excalidraw.com/Cascadia.woff2");
            }
            @font-face {
            font-family: "Assistant";
            src: url("https://excalidraw.com/Assistant-Regular.woff2");
            }
        </style>

    </defs>
    <rect x="0" y="0" width="1845.751327647683" height="752.185988540293" fill="#ffffff00"></rect><g stroke-linecap="round" transform="translate(57.915994544836394 161.5167133348907) rotate(0 141 259.5)"><path d="M32 0 C101.3 -1.55, 167.52 0.41, 250 0 M32 0 C99.84 0.38, 169.77 -0.47, 250 0 M250 0 C271.3 1.54, 280.69 9.58, 282 32 M250 0 C272.38 -1.29, 282.86 9.49, 282 32 M282 32 C280.03 165.31, 280.76 299.07, 282 487 M282 32 C281.61 196.88, 281.57 361.28, 282 487 M282 487 C280.77 508.07, 272.46 520.69, 250 519 M282 487 C280.97 506.96, 270.25 520.01, 250 519 M250 519 C202.26 519.98, 155.75 520.07, 32 519 M250 519 C192.93 517.85, 134.7 518.05, 32 519 M32 519 C12.6 517.56, -1.01 509.96, 0 487 M32 519 C12.7 520.45, 0.84 509.15, 0 487 M0 487 C1.06 379.78, 1.77 271.59, 0 32 M0 487 C0.81 375.89, 0.84 263.99, 0 32 M0 32 C-1.53 12.62, 9.7 -0.8, 32 0 M0 32 C1.59 8.75, 12.8 -0.9, 32 0" stroke="#1e1e1e" stroke-width="2" fill="none"></path></g><g stroke-linecap="round" transform="translate(74.99783857823434 197.59855736828877) rotate(0 125 23.83631193320406)"><path d="M11.92 0 C75.83 2.38, 142.99 1.88, 238.08 0 M11.92 0 C91.44 0.44, 171.47 1.24, 238.08 0 M238.08 0 C246.95 -1.86, 249.66 5.38, 250 11.92 M238.08 0 C243.94 -1.16, 251.82 1.73, 250 11.92 M250 11.92 C249.59 19.47, 249.73 23.49, 250 35.75 M250 11.92 C250.06 18.34, 249.37 24.88, 250 35.75 M250 35.75 C251.5 45.25, 245.31 46.45, 238.08 47.67 M250 35.75 C250.58 43.64, 245.28 47.78, 238.08 47.67 M238.08 47.67 C169.47 46.97, 102.91 46.97, 11.92 47.67 M238.08 47.67 C159.42 47.17, 81.5 47.99, 11.92 47.67 M11.92 47.67 C2.29 47.78, 0.45 42.05, 0 35.75 M11.92 47.67 C5.68 47.72, -0.19 43.6, 0 35.75 M0 35.75 C-0.04 30.35, 1.38 21.99, 0 11.92 M0 35.75 C1.08 31.73, -0.56 25.16, 0 11.92 M0 11.92 C-0.5 3.97, 2.14 -1.29, 11.92 0 M0 11.92 C0 1.88, 5 -1.54, 11.92 0" stroke="#2f9e44" stroke-width="4" fill="none"></path></g><g transform="translate(89.9159945448364 211.5167133348907) rotate(0 34.179962158203125 12.5)"><text x="0" y="0" font-family="Virgil, Segoe UI Emoji" font-size="20px" fill="#1e1e1e" text-anchor="start" style="white-space: pre;" direction="ltr" dominant-baseline="text-before-edge">reviews</text></g><g transform="translate(67.29698547610144 116.25330963547245) rotate(0 74.78797149658203 17.5)"><text x="0" y="0" font-family="Virgil, Segoe UI Emoji" font-size="28px" fill="#2f9e44" text-anchor="start" style="white-space: pre;" direction="ltr" dominant-baseline="text-before-edge">Colecciones</text></g><g stroke-linecap="round" transform="translate(378.9159945448364 162.5167133348907) rotate(0 138.5 260)"><path d="M32 0 C115.67 -0.4, 199.05 -0.28, 245 0 M32 0 C114.35 0.75, 195.13 -0.07, 245 0 M245 0 C266.45 -0.62, 277.27 9.13, 277 32 M245 0 C266.54 1.94, 276.71 12.74, 277 32 M277 32 C275.76 188.97, 275.24 344.32, 277 488 M277 32 C278.66 126.55, 278.89 221.62, 277 488 M277 488 C278.39 509.2, 267.33 519.02, 245 520 M277 488 C277.37 508.6, 266.71 517.84, 245 520 M245 520 C165.09 523.12, 87.94 522.98, 32 520 M245 520 C161.95 521.18, 78.21 520.43, 32 520 M32 520 C9.42 521.46, 1.91 508.3, 0 488 M32 520 C12.6 519.57, 2.21 509.67, 0 488 M0 488 C-1.48 319.11, -1.22 150.11, 0 32 M0 488 C-0.34 371.24, -0.3 254.39, 0 32 M0 32 C0.17 11.45, 9.7 -1.85, 32 0 M0 32 C-1.98 9.04, 11.22 -0.24, 32 0" stroke="#1e1e1e" stroke-width="2" fill="none"></path></g><g stroke-linecap="round" transform="translate(398.9159945448364 200.5167133348907) rotate(0 120 22.5)"><path d="M11.25 0 C95.84 -0.7, 176.64 1.44, 228.75 0 M11.25 0 C86.04 0.75, 159.58 0.89, 228.75 0 M228.75 0 C238.03 -0.65, 238.88 4.07, 240 11.25 M228.75 0 C236.61 -0.54, 238.86 1.95, 240 11.25 M240 11.25 C238.58 19.52, 240.41 29.79, 240 33.75 M240 11.25 C240.01 16.2, 240.07 22.13, 240 33.75 M240 33.75 C240.82 41.2, 237.83 46.25, 228.75 45 M240 33.75 C241.31 41.16, 237.83 44.97, 228.75 45 M228.75 45 C172.01 44.47, 116.55 45.64, 11.25 45 M228.75 45 C145.26 47.35, 59.84 46.61, 11.25 45 M11.25 45 C3.1 45.48, 0.54 41.18, 0 33.75 M11.25 45 C2.09 45.16, -2.26 39.98, 0 33.75 M0 33.75 C-1.67 29.97, 1.87 23.55, 0 11.25 M0 33.75 C-0.73 25.98, -0.68 19, 0 11.25 M0 11.25 C1.07 5.67, 4.13 1.67, 11.25 0 M0 11.25 C0.06 2.49, 2.95 -1.88, 11.25 0" stroke="#1971c2" stroke-width="4" fill="none"></path></g><g transform="translate(413.9159945448364 213.5167133348907) rotate(0 67.53996276855469 12.5)"><text x="0" y="0" font-family="Virgil, Segoe UI Emoji" font-size="20px" fill="#1e1e1e" text-anchor="start" style="white-space: pre;" direction="ltr" dominant-baseline="text-before-edge">12231332432</text></g><g stroke-linecap="round" transform="translate(398.9159945448364 264.0167133348907) rotate(0 120 22.5)"><path d="M11.25 0 C81.82 1.26, 155.94 0.99, 228.75 0 M11.25 0 C61.22 -0.68, 110.66 -0.56, 228.75 0 M228.75 0 C235.79 -1.64, 239.51 4.69, 240 11.25 M228.75 0 C236.46 1.5, 238.23 4.74, 240 11.25 M240 11.25 C237.94 20.34, 240.18 26.32, 240 33.75 M240 11.25 C240.59 20.52, 240.74 28.12, 240 33.75 M240 33.75 C241.4 39.75, 238.08 46.87, 228.75 45 M240 33.75 C238.83 39.31, 235.43 44.65, 228.75 45 M228.75 45 C180.18 45.21, 131.29 43.99, 11.25 45 M228.75 45 C179.48 45.93, 129.42 46.64, 11.25 45 M11.25 45 C2.87 44.61, -0.63 41.4, 0 33.75 M11.25 45 C2.54 46.28, -1.15 39.69, 0 33.75 M0 33.75 C-0.87 26.63, 0.52 20.24, 0 11.25 M0 33.75 C-0.79 24.01, 0.5 16.75, 0 11.25 M0 11.25 C-0.07 4.34, 2.88 1.1, 11.25 0 M0 11.25 C2.22 3.06, 3.01 -0.34, 11.25 0" stroke="#1971c2" stroke-width="4" fill="none"></path></g><g transform="translate(412.9159945448364 277.0167133348907) rotate(0 67.5799560546875 12.5)"><text x="0" y="0" font-family="Virgil, Segoe UI Emoji" font-size="20px" fill="#1e1e1e" text-anchor="start" style="white-space: pre;" direction="ltr" dominant-baseline="text-before-edge">3242353324</text></g><g stroke-linecap="round" transform="translate(399.9159945448364 329.0167133348907) rotate(0 120 22.5)"><path d="M11.25 0 C76.71 0.49, 142.35 1.34, 228.75 0 M11.25 0 C65.51 -0.33, 119.53 0.04, 228.75 0 M228.75 0 C236.75 -1, 241.95 4.24, 240 11.25 M228.75 0 C238.18 -1.69, 238.18 5.02, 240 11.25 M240 11.25 C239.12 21.11, 241.93 28.18, 240 33.75 M240 11.25 C239.28 16.89, 239.74 23.73, 240 33.75 M240 33.75 C240.89 40.1, 234.69 44.5, 228.75 45 M240 33.75 C241.9 40.1, 236.25 42.89, 228.75 45 M228.75 45 C171.83 45.37, 114.47 43.75, 11.25 45 M228.75 45 C171.67 43.36, 115.92 42.7, 11.25 45 M11.25 45 C1.94 44.82, -0.77 41.41, 0 33.75 M11.25 45 C3.94 43.48, -1.19 41.48, 0 33.75 M0 33.75 C0.65 23.76, 2.07 16.98, 0 11.25 M0 33.75 C-0.11 28.35, 0.22 22.64, 0 11.25 M0 11.25 C-0.06 1.87, 4.33 -0.72, 11.25 0 M0 11.25 C0.1 3.79, 4.64 -1.84, 11.25 0" stroke="#1971c2" stroke-width="4" fill="none"></path></g><g transform="translate(414.9159945448364 342.0167133348907) rotate(0 69.0599594116211 12.5)"><text x="0" y="0" font-family="Virgil, Segoe UI Emoji" font-size="20px" fill="#1e1e1e" text-anchor="start" style="white-space: pre;" direction="ltr" dominant-baseline="text-before-edge">09231363874</text></g><g stroke-linecap="round" transform="translate(703.9159945448364 164.5167133348907) rotate(0 149.5 257)"><path d="M32 0 C117.75 1.53, 202.86 2.11, 267 0 M32 0 C110.36 0.22, 190.29 0.31, 267 0 M267 0 C288.02 1.07, 299.15 9.26, 299 32 M267 0 C289.22 1.79, 299.18 10.13, 299 32 M299 32 C296.41 174.95, 297.23 317.65, 299 482 M299 32 C298.19 207.51, 297.97 383.17, 299 482 M299 482 C298.27 503.1, 289.93 512.89, 267 514 M299 482 C297.68 505.1, 288.96 515.07, 267 514 M267 514 C206.42 514.19, 150.5 514.53, 32 514 M267 514 C178.43 513.02, 89.28 514.25, 32 514 M32 514 C10.17 512.78, 0.48 501.72, 0 482 M32 514 C8.4 515.8, 0.43 501.45, 0 482 M0 482 C-1.01 345.9, 0.13 210.6, 0 32 M0 482 C-1.98 380.27, -2.36 277.35, 0 32 M0 32 C0.49 12.35, 10.93 1.56, 32 0 M0 32 C1.26 8.45, 10.33 1.49, 32 0" stroke="#1e1e1e" stroke-width="2" fill="none"></path></g><g transform="translate(396.6960696570494 117.50777753527854) rotate(0 79.98197174072266 17.5)"><text x="0" y="0" font-family="Virgil, Segoe UI Emoji" font-size="28px" fill="#1971c2" text-anchor="start" style="white-space: pre;" direction="ltr" dominant-baseline="text-before-edge">Documentos</text></g><g transform="translate(715.8722365268804 118.42593350188054) rotate(0 72.37997436523438 17.5)"><text x="0" y="0" font-family="Virgil, Segoe UI Emoji" font-size="28px" fill="#1e1e1e" text-anchor="start" style="white-space: pre;" direction="ltr" dominant-baseline="text-before-edge">Documento</text></g><g stroke-linecap="round" transform="translate(730.1872208289531 200.5203105969867) rotate(0 125 23.295389916505087)"><path d="M11.65 0 C67.19 2.81, 124.75 3.15, 238.35 0 M11.65 0 C85 -0.65, 156.96 -0.16, 238.35 0 M238.35 0 C247.29 -1.59, 249.35 4.43, 250 11.65 M238.35 0 C247.56 1.67, 250.75 3.53, 250 11.65 M250 11.65 C250 21.62, 248 28.48, 250 34.94 M250 11.65 C249.83 19.2, 250.58 25.74, 250 34.94 M250 34.94 C250.14 40.74, 245.71 45.44, 238.35 46.59 M250 34.94 C248.09 44.47, 244.36 48.07, 238.35 46.59 M238.35 46.59 C150.45 46.85, 60.17 45.87, 11.65 46.59 M238.35 46.59 C171.5 44.77, 106.07 44.01, 11.65 46.59 M11.65 46.59 C2.5 48.27, -1.69 44.44, 0 34.94 M11.65 46.59 C4.31 47.59, -1.8 41.28, 0 34.94 M0 34.94 C-0.54 27.41, 0.7 18.31, 0 11.65 M0 34.94 C-0.65 27.98, 1.15 21.71, 0 11.65 M0 11.65 C0.96 5.58, 3.82 0.66, 11.65 0 M0 11.65 C1.1 1.6, 1.99 -0.38, 11.65 0" stroke="#2f9e44" stroke-width="4" fill="none"></path></g><g transform="translate(746.1872208289531 213.35662253019075) rotate(0 63.06993865966797 12.5)"><text x="0" y="0" font-family="Virgil, Segoe UI Emoji" font-size="20px" fill="#1e1e1e" text-anchor="start" style="white-space: pre;" direction="ltr" dominant-baseline="text-before-edge">commentaries</text></g><g stroke-linecap="round" transform="translate(727.1885545819387 270.8759159663034) rotate(0 125.94902589508183 184.48265141343563)"><path d="M32 0 C90.33 -0.48, 146.16 0.06, 219.9 0 M32 0 C99.33 -0.9, 167.91 0.37, 219.9 0 M219.9 0 C241.5 -1.35, 250.35 10.76, 251.9 32 M219.9 0 C239.48 -0.57, 253.37 10.54, 251.9 32 M251.9 32 C251.88 128.02, 250.71 227.23, 251.9 336.97 M251.9 32 C251.18 140.21, 250.16 248.35, 251.9 336.97 M251.9 336.97 C250.95 356.95, 239.36 369.36, 219.9 368.97 M251.9 336.97 C250.45 360.14, 243.09 370.64, 219.9 368.97 M219.9 368.97 C167.78 365.96, 115.99 365.45, 32 368.97 M219.9 368.97 C145.51 370.35, 73.07 371.61, 32 368.97 M32 368.97 C10.75 368.7, -0.37 356.85, 0 336.97 M32 368.97 C10.39 370.84, -2.14 356.2, 0 336.97 M0 336.97 C-3.25 273.16, -1.69 211.59, 0 32 M0 336.97 C-0.96 243.74, -1.13 150.03, 0 32 M0 32 C-1.67 10.57, 12.63 -1.25, 32 0 M0 32 C-0.43 10.57, 11.96 -1.8, 32 0" stroke="#1e1e1e" stroke-width="2" fill="none"></path></g><g transform="translate(756.967509219465 302.1764847010588) rotate(0 94.5759506225586 150)"><text x="0" y="0" font-family="Virgil, Segoe UI Emoji" font-size="16px" fill="#1e1e1e" text-anchor="start" style="white-space: pre;" direction="ltr" dominant-baseline="text-before-edge">userName: gonzalesmtz</text><text x="0" y="20" font-family="Virgil, Segoe UI Emoji" font-size="16px" fill="#1e1e1e" text-anchor="start" style="white-space: pre;" direction="ltr" dominant-baseline="text-before-edge"></text><text x="0" y="40" font-family="Virgil, Segoe UI Emoji" font-size="16px" fill="#1e1e1e" text-anchor="start" style="white-space: pre;" direction="ltr" dominant-baseline="text-before-edge">userId: 3453421342</text><text x="0" y="60" font-family="Virgil, Segoe UI Emoji" font-size="16px" fill="#1e1e1e" text-anchor="start" style="white-space: pre;" direction="ltr" dominant-baseline="text-before-edge"></text><text x="0" y="80" font-family="Virgil, Segoe UI Emoji" font-size="16px" fill="#1e1e1e" text-anchor="start" style="white-space: pre;" direction="ltr" dominant-baseline="text-before-edge">bookName: Dracula</text><text x="0" y="100" font-family="Virgil, Segoe UI Emoji" font-size="16px" fill="#1e1e1e" text-anchor="start" style="white-space: pre;" direction="ltr" dominant-baseline="text-before-edge"></text><text x="0" y="120" font-family="Virgil, Segoe UI Emoji" font-size="16px" fill="#1e1e1e" text-anchor="start" style="white-space: pre;" direction="ltr" dominant-baseline="text-before-edge">bookId: 2432534213</text><text x="0" y="140" font-family="Virgil, Segoe UI Emoji" font-size="16px" fill="#1e1e1e" text-anchor="start" style="white-space: pre;" direction="ltr" dominant-baseline="text-before-edge"></text><text x="0" y="160" font-family="Virgil, Segoe UI Emoji" font-size="16px" fill="#1e1e1e" text-anchor="start" style="white-space: pre;" direction="ltr" dominant-baseline="text-before-edge">review: Creo que es un</text><text x="0" y="180" font-family="Virgil, Segoe UI Emoji" font-size="16px" fill="#1e1e1e" text-anchor="start" style="white-space: pre;" direction="ltr" dominant-baseline="text-before-edge">    libro sobrevalorado</text><text x="0" y="200" font-family="Virgil, Segoe UI Emoji" font-size="16px" fill="#1e1e1e" text-anchor="start" style="white-space: pre;" direction="ltr" dominant-baseline="text-before-edge">    y aburrido.</text><text x="0" y="220" font-family="Virgil, Segoe UI Emoji" font-size="16px" fill="#1e1e1e" text-anchor="start" style="white-space: pre;" direction="ltr" dominant-baseline="text-before-edge"></text><text x="0" y="240" font-family="Virgil, Segoe UI Emoji" font-size="16px" fill="#1e1e1e" text-anchor="start" style="white-space: pre;" direction="ltr" dominant-baseline="text-before-edge">stars: 2</text><text x="0" y="260" font-family="Virgil, Segoe UI Emoji" font-size="16px" fill="#1e1e1e" text-anchor="start" style="white-space: pre;" direction="ltr" dominant-baseline="text-before-edge"></text><text x="0" y="280" font-family="Virgil, Segoe UI Emoji" font-size="16px" fill="#1e1e1e" text-anchor="start" style="white-space: pre;" direction="ltr" dominant-baseline="text-before-edge">createdAt: 19/02/2024</text></g><g stroke-linecap="round"><g transform="translate(332.9956084520227 225.6169336816074) rotate(0 28.01511718464951 -0.700377929616252)"><path d="M0.53 0.89 C10 0.57, 47.66 -2.11, 57.04 -2.47 M-0.65 0.3 C8.73 0.15, 47.11 -1.46, 56.62 -1.5" stroke="#9c36b5" stroke-width="4" fill="none"></path></g><g transform="translate(332.9956084520227 225.6169336816074) rotate(0 28.01511718464951 -0.700377929616252)"><path d="M33.36 7.65 C42.26 6.33, 46.38 3.04, 56.62 -1.5 M33.36 7.65 C41.39 4.18, 46.83 2.43, 56.62 -1.5" stroke="#9c36b5" stroke-width="4" fill="none"></path></g><g transform="translate(332.9956084520227 225.6169336816074) rotate(0 28.01511718464951 -0.700377929616252)"><path d="M32.92 -9.45 C41.88 -5.34, 46.14 -3.21, 56.62 -1.5 M32.92 -9.45 C41.11 -7.62, 46.69 -4.08, 56.62 -1.5" stroke="#9c36b5" stroke-width="4" fill="none"></path></g></g><mask></mask><g stroke-linecap="round"><g transform="translate(648.9191195708058 224.34196417183045) rotate(0 35.313794341539165 0)"><path d="M1.01 -1.07 C12.82 -1.2, 59.78 0.01, 71.41 0.12 M0.08 0.98 C11.76 0.99, 59.2 1.77, 70.87 1.71" stroke="#9c36b5" stroke-width="4" fill="none"></path></g><g transform="translate(648.9191195708058 224.34196417183045) rotate(0 35.313794341539165 0)"><path d="M47.31 10.09 C53.57 8.31, 63.65 4.37, 70.87 1.71 M47.31 10.09 C52.53 8.41, 59.79 4.97, 70.87 1.71" stroke="#9c36b5" stroke-width="4" fill="none"></path></g><g transform="translate(648.9191195708058 224.34196417183045) rotate(0 35.313794341539165 0)"><path d="M47.44 -7.01 C53.78 -2.91, 63.81 -0.97, 70.87 1.71 M47.44 -7.01 C52.77 -4.18, 59.99 -3.12, 70.87 1.71" stroke="#9c36b5" stroke-width="4" fill="none"></path></g></g><mask></mask><g stroke-linecap="round" transform="translate(1047.497039657848 158.651611899967) rotate(0 138.5 260)"><path d="M32 0 C76.55 -0.29, 122.9 -1.81, 245 0 M32 0 C99.76 -0.4, 167.51 -0.76, 245 0 M245 0 C266.01 -1.23, 275.64 11.86, 277 32 M245 0 C264.89 -0.48, 278.96 9.48, 277 32 M277 32 C274.82 196.08, 274.83 358.48, 277 488 M277 32 C277.38 197.52, 277.1 363.46, 277 488 M277 488 C278.12 507.75, 266.77 520.54, 245 520 M277 488 C275.48 508.13, 264.56 519.73, 245 520 M245 520 C161.57 518.79, 78.15 518.77, 32 520 M245 520 C183.59 519.46, 121.2 519.45, 32 520 M32 520 C10.07 521.41, -0.48 508.77, 0 488 M32 520 C10.74 518.88, 2 510.71, 0 488 M0 488 C-2 389.88, -1.95 293.68, 0 32 M0 488 C1.57 341.31, 1.32 194.53, 0 32 M0 32 C-0.36 11.73, 11.82 -0.72, 32 0 M0 32 C-0.71 9.77, 10.99 0.68, 32 0" stroke="#1e1e1e" stroke-width="2" fill="none"></path></g><g stroke-linecap="round" transform="translate(1067.497039657848 196.651611899967) rotate(0 120 22.5)"><path d="M11.25 0 C87.28 -1.58, 166.83 -2.06, 228.75 0 M11.25 0 C79.81 -0.26, 148.81 -0.34, 228.75 0 M228.75 0 C234.89 1.19, 238.75 3.33, 240 11.25 M228.75 0 C238.21 -1.18, 241.33 1.88, 240 11.25 M240 11.25 C239.02 19.62, 241.16 28.14, 240 33.75 M240 11.25 C239.46 18.4, 240.57 23.15, 240 33.75 M240 33.75 C240.43 41.79, 234.93 43.95, 228.75 45 M240 33.75 C238.23 40.98, 238.41 45.61, 228.75 45 M228.75 45 C173.27 44.06, 115.82 46.24, 11.25 45 M228.75 45 C172.21 45.72, 115.94 46.11, 11.25 45 M11.25 45 C3.27 44.43, 0.06 40.28, 0 33.75 M11.25 45 C5.75 46.38, -2 43.32, 0 33.75 M0 33.75 C0 28.36, 0.45 20.77, 0 11.25 M0 33.75 C-0.58 27.78, -0.16 21.47, 0 11.25 M0 11.25 C1.15 3.03, 3.13 -0.78, 11.25 0 M0 11.25 C0.33 4.43, 1.93 -0.69, 11.25 0" stroke="#1971c2" stroke-width="4" fill="none"></path></g><g transform="translate(1082.497039657848 209.651611899967) rotate(0 71.82994842529297 12.5)"><text x="0" y="0" font-family="Virgil, Segoe UI Emoji" font-size="20px" fill="#1e1e1e" text-anchor="start" style="white-space: pre;" direction="ltr" dominant-baseline="text-before-edge">24543733424</text></g><g stroke-linecap="round" transform="translate(1067.497039657848 260.151611899967) rotate(0 120 22.5)"><path d="M11.25 0 C67.52 1.05, 123.04 0.75, 228.75 0 M11.25 0 C64.66 1.68, 118.71 0.98, 228.75 0 M228.75 0 C237.95 -1.03, 241.16 2.12, 240 11.25 M228.75 0 C237.81 -1.02, 242.1 2.74, 240 11.25 M240 11.25 C239.78 18.19, 240.06 23.87, 240 33.75 M240 11.25 C240.34 20.08, 239.46 27.85, 240 33.75 M240 33.75 C238.46 41.02, 238.13 45.53, 228.75 45 M240 33.75 C239.06 41.84, 235.67 46.19, 228.75 45 M228.75 45 C168.59 47.58, 110.32 46.34, 11.25 45 M228.75 45 C157.77 46.09, 87.24 45.91, 11.25 45 M11.25 45 C5.49 46.2, -1.73 43.05, 0 33.75 M11.25 45 C2.73 44.87, -2.12 41.24, 0 33.75 M0 33.75 C-0.36 26.45, 0.58 18.25, 0 11.25 M0 33.75 C0.61 25.67, -0.27 17.93, 0 11.25 M0 11.25 C0.28 4.34, 2.17 -0.6, 11.25 0 M0 11.25 C1.88 1.77, 5.77 -1.42, 11.25 0" stroke="#1971c2" stroke-width="4" fill="none"></path></g><g transform="translate(1081.497039657848 273.151611899967) rotate(0 75.31993103027344 12.5)"><text x="0" y="0" font-family="Virgil, Segoe UI Emoji" font-size="20px" fill="#1e1e1e" text-anchor="start" style="white-space: pre;" direction="ltr" dominant-baseline="text-before-edge">254265756576</text></g><g stroke-linecap="round" transform="translate(1068.497039657848 325.151611899967) rotate(0 120 22.5)"><path d="M11.25 0 C72.07 0.34, 133.63 -0.55, 228.75 0 M11.25 0 C90.19 -0.05, 168.16 -0.31, 228.75 0 M228.75 0 C237.61 -0.89, 241.83 2.87, 240 11.25 M228.75 0 C236.36 1.45, 240.39 3.34, 240 11.25 M240 11.25 C241.6 19.21, 238.41 25.37, 240 33.75 M240 11.25 C239.08 18.49, 240.79 26.22, 240 33.75 M240 33.75 C239.18 41.76, 235.75 46.04, 228.75 45 M240 33.75 C239.39 41.02, 238.52 44.05, 228.75 45 M228.75 45 C155.06 43.91, 81.7 44.01, 11.25 45 M228.75 45 C170.41 44.6, 109.81 44.87, 11.25 45 M11.25 45 C2.86 44.89, -1.85 41.24, 0 33.75 M11.25 45 C4.17 45.51, -1.7 40.9, 0 33.75 M0 33.75 C0.79 26.79, 0.99 21.7, 0 11.25 M0 33.75 C0.21 28.11, -0.72 21.57, 0 11.25 M0 11.25 C1.64 2.03, 5.51 -1.24, 11.25 0 M0 11.25 C-0.82 3.35, 1.51 1.48, 11.25 0" stroke="#1971c2" stroke-width="4" fill="none"></path></g><g transform="translate(1083.497039657848 338.151611899967) rotate(0 77.10993957519531 12.5)"><text x="0" y="0" font-family="Virgil, Segoe UI Emoji" font-size="20px" fill="#1e1e1e" text-anchor="start" style="white-space: pre;" direction="ltr" dominant-baseline="text-before-edge">768756452343</text></g><g transform="translate(1065.2771147700612 113.64267610035483) rotate(0 79.98197174072266 17.5)"><text x="0" y="0" font-family="Virgil, Segoe UI Emoji" font-size="28px" fill="#1971c2" text-anchor="start" style="white-space: pre;" direction="ltr" dominant-baseline="text-before-edge">Documentos</text></g><g stroke-linecap="round" transform="translate(1372.0438578688504 159.15606454769363) rotate(0 149.5 257)"><path d="M32 0 C90.7 0.58, 149.3 -0.68, 267 0 M32 0 C118.14 1.14, 203.05 1.96, 267 0 M267 0 C289.42 1.24, 299.32 10.32, 299 32 M267 0 C288.37 0.5, 301.25 12.13, 299 32 M299 32 C300.58 163.03, 299.56 294.48, 299 482 M299 32 C301.36 144.27, 300.66 255.16, 299 482 M299 482 C299.04 504.15, 287.05 512.59, 267 514 M299 482 C300.37 504.89, 287.12 515.76, 267 514 M267 514 C207.3 513.06, 152.18 513.21, 32 514 M267 514 C192.65 512.4, 117.58 513.14, 32 514 M32 514 C11.55 514.68, -0.2 501.69, 0 482 M32 514 C11.04 513.98, -0.54 505.55, 0 482 M0 482 C0.99 361.43, 0.68 239.01, 0 32 M0 482 C0.51 335.19, 0.73 187.62, 0 32 M0 32 C-0.78 12.1, 9.09 -1.38, 32 0 M0 32 C-0.58 8.47, 9.39 -0.72, 32 0" stroke="#1e1e1e" stroke-width="2" fill="none"></path></g><g transform="translate(1384.0000998508945 113.06528471468346) rotate(0 72.37997436523438 17.5)"><text x="0" y="0" font-family="Virgil, Segoe UI Emoji" font-size="28px" fill="#1e1e1e" text-anchor="start" style="white-space: pre;" direction="ltr" dominant-baseline="text-before-edge">Documento</text></g><g stroke-linecap="round" transform="translate(1401.998384208599 195.15966180978955) rotate(0 119.74692050234921 23.295389916505087)"><path d="M11.65 0 C84.71 2.05, 153.97 2.22, 227.85 0 M11.65 0 C59.85 0.18, 107.24 -0.51, 227.85 0 M227.85 0 C235.65 0.44, 241.45 5.16, 239.49 11.65 M227.85 0 C235.44 1.58, 241.61 4.09, 239.49 11.65 M239.49 11.65 C238.24 18.96, 238.43 24.44, 239.49 34.94 M239.49 11.65 C239.38 21.24, 238.72 29.3, 239.49 34.94 M239.49 34.94 C240.68 44.06, 234.55 48.12, 227.85 46.59 M239.49 34.94 C238.28 43.49, 235.58 44.44, 227.85 46.59 M227.85 46.59 C174.99 46.21, 120.58 46.08, 11.65 46.59 M227.85 46.59 C176.68 47.37, 124.65 46.36, 11.65 46.59 M11.65 46.59 C4.21 46.57, -0.47 44.64, 0 34.94 M11.65 46.59 C3.18 45.74, 1.32 43.15, 0 34.94 M0 34.94 C0.56 25.33, -0.64 15.86, 0 11.65 M0 34.94 C-0.33 27.69, -0.73 18.31, 0 11.65 M0 11.65 C-0.51 1.97, 2.77 -0.62, 11.65 0 M0 11.65 C1.64 4.16, 4.57 1.55, 11.65 0" stroke="#2f9e44" stroke-width="4" fill="none"></path></g><g transform="translate(1416.6697533159945 206.42619430097523) rotate(0 63.06993865966797 12.5)"><text x="0" y="0" font-family="Virgil, Segoe UI Emoji" font-size="20px" fill="#1e1e1e" text-anchor="start" style="white-space: pre;" direction="ltr" dominant-baseline="text-before-edge">commentaries</text></g><g stroke-linecap="round" transform="translate(1402.148552412394 265.51526717910633) rotate(0 121.16653174057251 181.74979761085893)"><path d="M32 0 C96.76 -1.08, 165.08 -0.37, 210.33 0 M32 0 C96.54 0.53, 162.03 0.95, 210.33 0 M210.33 0 C231.52 1.37, 244.18 10.85, 242.33 32 M210.33 0 C230.23 -2.23, 240.45 9.48, 242.33 32 M242.33 32 C242.8 147.69, 239.96 265.09, 242.33 331.5 M242.33 32 C241.35 134.64, 240.53 236.85, 242.33 331.5 M242.33 331.5 C241.28 353.52, 231.64 361.63, 210.33 363.5 M242.33 331.5 C241.09 354.78, 230.62 363.89, 210.33 363.5 M210.33 363.5 C150.72 362.99, 94.09 364.74, 32 363.5 M210.33 363.5 C150.97 362.03, 91.05 363, 32 363.5 M32 363.5 C10.06 362.76, 1.15 353.22, 0 331.5 M32 363.5 C12.48 363.21, -0.78 353.45, 0 331.5 M0 331.5 C1.35 253.06, -0.33 174.8, 0 32 M0 331.5 C1.55 219.46, 1.33 108.59, 0 32 M0 32 C1.43 10.91, 11.27 1.35, 32 0 M0 32 C1.04 11.79, 8.5 -0.35, 32 0" stroke="#1e1e1e" stroke-width="2" fill="none"></path></g><g transform="translate(1429.1946532473435 296.81583591386175) rotate(0 81.75994110107422 70)"><text x="0" y="0" font-family="Virgil, Segoe UI Emoji" font-size="16px" fill="#1e1e1e" text-anchor="start" style="white-space: pre;" direction="ltr" dominant-baseline="text-before-edge">userName: mariorgz</text><text x="0" y="20" font-family="Virgil, Segoe UI Emoji" font-size="16px" fill="#1e1e1e" text-anchor="start" style="white-space: pre;" direction="ltr" dominant-baseline="text-before-edge"></text><text x="0" y="40" font-family="Virgil, Segoe UI Emoji" font-size="16px" fill="#1e1e1e" text-anchor="start" style="white-space: pre;" direction="ltr" dominant-baseline="text-before-edge">userId: 1343254324</text><text x="0" y="60" font-family="Virgil, Segoe UI Emoji" font-size="16px" fill="#1e1e1e" text-anchor="start" style="white-space: pre;" direction="ltr" dominant-baseline="text-before-edge"></text><text x="0" y="80" font-family="Virgil, Segoe UI Emoji" font-size="16px" fill="#1e1e1e" text-anchor="start" style="white-space: pre;" direction="ltr" dominant-baseline="text-before-edge">content: Cállate, no</text><text x="0" y="100" font-family="Virgil, Segoe UI Emoji" font-size="16px" fill="#1e1e1e" text-anchor="start" style="white-space: pre;" direction="ltr" dominant-baseline="text-before-edge">    sabes nada, te</text><text x="0" y="120" font-family="Virgil, Segoe UI Emoji" font-size="16px" fill="#1e1e1e" text-anchor="start" style="white-space: pre;" direction="ltr" dominant-baseline="text-before-edge">    odio.</text></g><g stroke-linecap="round"><g transform="translate(990.4859967505668 224.70602485866198) rotate(0 32.79424563091993 -0.6832134506441889)"><path d="M0.14 -0.44 C11.11 -0.83, 55.87 -2.15, 66.6 -2.23 M-1.24 -1.71 C9.59 -1.98, 54.84 -0.92, 66.18 -1.15" stroke="#9c36b5" stroke-width="4" fill="none"></path></g><g transform="translate(990.4859967505668 224.70602485866198) rotate(0 32.79424563091993 -0.6832134506441889)"><path d="M42.65 7.31 C50.5 5.87, 58.37 -0.73, 66.18 -1.15 M42.65 7.31 C50.16 5.61, 58.38 1.22, 66.18 -1.15" stroke="#9c36b5" stroke-width="4" fill="none"></path></g><g transform="translate(990.4859967505668 224.70602485866198) rotate(0 32.79424563091993 -0.6832134506441889)"><path d="M42.72 -9.8 C50.56 -4.99, 58.41 -5.35, 66.18 -1.15 M42.72 -9.8 C50.23 -5.75, 58.43 -4.4, 66.18 -1.15" stroke="#9c36b5" stroke-width="4" fill="none"></path></g></g><mask></mask><g stroke-linecap="round"><g transform="translate(1316.904424785946 219.33861248409073) rotate(0 37.576739785429254 0.6832134506441889)"><path d="M-0.08 -1.02 C12.6 -1.07, 62.36 0.27, 74.91 0.83 M-1.58 1.06 C11.02 1.68, 61.16 2.18, 73.84 2.08" stroke="#9c36b5" stroke-width="4" fill="none"></path></g><g transform="translate(1316.904424785946 219.33861248409073) rotate(0 37.576739785429254 0.6832134506441889)"><path d="M50.32 10.56 C53.33 8.44, 58.92 7.22, 73.84 2.08 M50.32 10.56 C60.12 7.85, 68.96 3.59, 73.84 2.08" stroke="#9c36b5" stroke-width="4" fill="none"></path></g><g transform="translate(1316.904424785946 219.33861248409073) rotate(0 37.576739785429254 0.6832134506441889)"><path d="M50.37 -6.54 C53.54 -5.17, 59.11 -2.91, 73.84 2.08 M50.37 -6.54 C60.18 -2.74, 69 -0.49, 73.84 2.08" stroke="#9c36b5" stroke-width="4" fill="none"></path></g></g><mask></mask><g stroke-linecap="round"><g transform="translate(1652.6750963004783 220.13175909033538) rotate(0 36.07240567594613 -0.22901420954164564)"><path d="M-0.63 -0.9 C11.67 -1.19, 61.08 -0.77, 73.09 -0.63 M1.24 1.24 C13.52 1.66, 60.52 1.39, 72.63 0.81" stroke="#9c36b5" stroke-width="4" fill="none"></path></g><g transform="translate(1652.6750963004783 220.13175909033538) rotate(0 36.07240567594613 -0.22901420954164564)"><path d="M49.34 9.9 C53.43 9.38, 60.32 4.35, 72.63 0.81 M49.34 9.9 C56.37 6.14, 65.76 3.13, 72.63 0.81" stroke="#9c36b5" stroke-width="4" fill="none"></path></g><g transform="translate(1652.6750963004783 220.13175909033538) rotate(0 36.07240567594613 -0.22901420954164564)"><path d="M48.95 -7.19 C53.29 -3.55, 60.27 -4.41, 72.63 0.81 M48.95 -7.19 C56.14 -5.28, 65.67 -2.61, 72.63 0.81" stroke="#9c36b5" stroke-width="4" fill="none"></path></g></g><mask></mask><g stroke-linecap="round" transform="translate(1740.8199076523706 184.58628121075117) rotate(0 28.071095285945376 35.11618021082387)"><path d="M14.04 0 C24.34 0.06, 34.64 -1.24, 42.11 0 M14.04 0 C22.37 -0.65, 29.17 -0.22, 42.11 0 M42.11 0 C53.29 0.17, 56.51 3.3, 56.14 14.04 M42.11 0 C52.1 -0.79, 55.52 2.4, 56.14 14.04 M56.14 14.04 C55.47 24.37, 56.18 35.89, 56.14 56.2 M56.14 14.04 C55.72 23.74, 57.2 32.98, 56.14 56.2 M56.14 56.2 C56.56 66.8, 52.07 72.06, 42.11 70.23 M56.14 56.2 C55.69 66.18, 52 68.8, 42.11 70.23 M42.11 70.23 C32.83 69.36, 23.77 71.61, 14.04 70.23 M42.11 70.23 C33.41 69.52, 23.92 69.97, 14.04 70.23 M14.04 70.23 C3.48 70.13, -1.71 63.56, 0 56.2 M14.04 70.23 C5.08 69.57, -0.25 63.57, 0 56.2 M0 56.2 C1.04 42.15, 1.42 27.01, 0 14.04 M0 56.2 C0.07 43.48, -0.06 33.52, 0 14.04 M0 14.04 C-0.39 6.31, 2.69 0.01, 14.04 0 M0 14.04 C-0.87 6.07, 6.59 1.51, 14.04 0" stroke="#9c36b5" stroke-width="4" fill="none"></path></g><g transform="translate(1760.5030100794293 197.20246142157504) rotate(0 8.387992858886719 22.5)"><text x="8.387992858886719" y="0" font-family="Virgil, Segoe UI Emoji" font-size="36px" fill="#9c36b5" text-anchor="middle" style="white-space: pre;" direction="ltr" dominant-baseline="text-before-edge">?</text></g><g stroke-linecap="round" transform="translate(10 10) rotate(0 912.8756638238415 366.0929942701465)"><path d="M32 0 C602.45 -3.44, 1173.01 -3.23, 1793.75 0 M32 0 C678.76 -3.61, 1326.4 -3.48, 1793.75 0 M1793.75 0 C1816.39 -1.24, 1823.76 8.9, 1825.75 32 M1793.75 0 C1813.62 -1.61, 1823.62 10, 1825.75 32 M1825.75 32 C1828.51 209.01, 1828.45 385.18, 1825.75 700.19 M1825.75 32 C1827.67 297.71, 1827.46 564.3, 1825.75 700.19 M1825.75 700.19 C1825.85 722.24, 1813.84 733.76, 1793.75 732.19 M1825.75 700.19 C1827.34 722.54, 1814.18 730.16, 1793.75 732.19 M1793.75 732.19 C1334.7 733.57, 877.47 732.91, 32 732.19 M1793.75 732.19 C1110.06 727.85, 426.27 728.23, 32 732.19 M32 732.19 C9.17 730.43, -1.55 719.86, 0 700.19 M32 732.19 C9.63 732.84, 0 723.47, 0 700.19 M0 700.19 C-1.82 436.91, -0.99 172.99, 0 32 M0 700.19 C-0.64 444.21, -1.33 188.43, 0 32 M0 32 C-0.02 9.4, 11.23 -1.77, 32 0 M0 32 C-0.84 11.45, 12.74 -0.89, 32 0" stroke="#f8f0fc00" stroke-width="1" fill="none"></path></g></svg>